<?xml version="1.0" encoding="UTF-8" standalone="no" ?>
<!DOCTYPE svg PUBLIC "-//W3C//DTD SVG 1.1//EN" "http://www.w3.org/Graphics/SVG/1.1/DTD/svg11.dtd">
<svg xmlns="http://www.w3.org/2000/svg" xmlns:xlink="http://www.w3.org/1999/xlink" version="1.1" width="300" height="200" viewBox="0 0 300 200" xml:space="preserve">
<defs>
</defs>
<g transform="matrix(1 0 0 1 150 50)" id="XQ939IjC4d8TnpFZlQeYh"  >
<path style="stroke: rgb(162,241,240); stroke-width: 0; stroke-dasharray: none; stroke-linecap: butt; stroke-dashoffset: 0; stroke-linejoin: miter; stroke-miterlimit: 4; fill: rgb(0,102,204); fill-rule: nonzero; opacity: 1;" vector-effect="non-scaling-stroke"  transform=" translate(-150, -50)" d="M 0 0 L 300 0 L 300 100 L 0 100 z" stroke-linecap="round" />
</g>
<g transform="matrix(1 0 0 1 150 150)" id="WTyvSMIW86T-7du6sGpQM"  >
<path style="stroke: rgb(162,241,240); stroke-width: 0; stroke-dasharray: none; stroke-linecap: butt; stroke-dashoffset: 0; stroke-linejoin: miter; stroke-miterlimit: 4; fill: rgb(255,204,0); fill-rule: nonzero; opacity: 1;" vector-effect="non-scaling-stroke"  transform=" translate(-150, -50)" d="M 0 0 L 300 0 L 300 100 L 0 100 z" stroke-linecap="round" />
</g>
<g transform="matrix(1 0 0 1 150 50)" style="" id="z39Wm_tOm04C136H6jRft"  >
		<text xml:space="preserve" font-family="Arial" font-size="23" font-style="normal" font-weight="700" letter-spacing="0.046" line-height="1" style="stroke: none; stroke-width: 1; stroke-dasharray: none; stroke-linecap: butt; stroke-dashoffset: 0; stroke-linejoin: miter; stroke-miterlimit: 4; fill: rgb(146,3,3); fill-rule: nonzero; opacity: 1; white-space: pre;" ><tspan x="-139" y="7.74" >S</tspan><tspan x="-126.29" y="7.74" >t</tspan><tspan x="-116.26" y="7.74" >o</tspan><tspan x="-101.97" y="7.74" >p</tspan><tspan x="-87.37" y="7.74" style="white-space: pre; "> </tspan><tspan x="-81.35" y="7.74" >R</tspan><tspan x="-66.12" y="7.74" >u</tspan><tspan x="-50.96" y="7.74" >s</tspan><tspan x="-39.48" y="7.74" >s</tspan><tspan x="-28" y="7.74" >i</tspan><tspan x="-20.94" y="7.74" >a</tspan><tspan x="-7" y="7.74" >n</tspan><tspan x="8.16" y="7.74" style="white-space: pre; "> </tspan><tspan x="14.18" y="7.74" >a</tspan><tspan x="28.12" y="7.74" >g</tspan><tspan x="41.16" y="7.74" >g</tspan><tspan x="54.2" y="7.74" >r</tspan><tspan x="64.69" y="7.74" >e</tspan><tspan x="78.33" y="7.74" >s</tspan><tspan x="89.81" y="7.74" >s</tspan><tspan x="101.28" y="7.74" >i</tspan><tspan x="108.35" y="7.74" >o</tspan><tspan x="122.64" y="7.74" >n</tspan></text>
</g>
<g transform="matrix(1 0 0 1 141.2 149.55)" style="" id="Oqr9jrLp4ConOSdTJpT34"  >
		<text xml:space="preserve" font-family="Arial" font-size="28" font-style="normal" font-weight="700" letter-spacing="0.056" line-height="1" style="stroke: rgb(255,255,255); stroke-width: 0; stroke-dasharray: none; stroke-linecap: butt; stroke-dashoffset: 0; stroke-linejoin: miter; stroke-miterlimit: 4; fill: rgb(255,255,255); fill-rule: nonzero; opacity: 1; white-space: pre;" ><tspan x="-128.14" y="9" >H</tspan><tspan x="-106.66" y="9" >e</tspan><tspan x="-90.06" y="9" >l</tspan><tspan x="-81.46" y="9" >p</tspan><tspan x="-63.69" y="9" style="white-space: pre; "> </tspan><tspan x="-56.36" y="9" >U</tspan><tspan x="-35.14" y="9" >k</tspan><tspan x="-17.72" y="9" >r</tspan><tspan x="-4.95" y="9" >a</tspan><tspan x="12.02" y="9" >i</tspan><tspan x="20.62" y="9" >n</tspan><tspan x="39.08" y="9" >e</tspan><tspan x="55.68" y="9" style="white-space: pre; "> </tspan><tspan x="63.01" y="9" >n</tspan><tspan x="81.47" y="9" >o</tspan><tspan x="98.86" y="9" >w</tspan></text>
</g>
<g transform="matrix(0.18 0 0 0.18 280.59 149.55)" id="09dkM1orbl8WplBJRZOrL"  >
<path style="stroke: rgb(0,0,0); stroke-opacity: 0; stroke-width: 1; stroke-dasharray: none; stroke-linecap: butt; stroke-dashoffset: 0; stroke-linejoin: miter; stroke-miterlimit: 4; fill: rgb(255,255,255); fill-rule: nonzero; opacity: 1;" vector-effect="non-scaling-stroke"  transform=" translate(-40, -40)" d="M 41.17 72.5 L 80 40 L 41.17 7.5 L 41.17 28.105 L 0 28.105 L 0 51.952 L 41.17 51.952 L 41.17 72.5 z" stroke-linecap="round" />
</g>
</svg>