<?xml version="1.0" encoding="UTF-8" standalone="no" ?>
<!DOCTYPE svg PUBLIC "-//W3C//DTD SVG 1.1//EN" "http://www.w3.org/Graphics/SVG/1.1/DTD/svg11.dtd">
<svg xmlns="http://www.w3.org/2000/svg" xmlns:xlink="http://www.w3.org/1999/xlink" version="1.1" width="300" height="200" viewBox="0 0 300 200" xml:space="preserve">
<desc>Created with Fabric.js 4.6.0</desc>
<defs>
</defs>
<g transform="matrix(0.93 0 0 1 150 50)" id="XQ939IjC4d8TnpFZlQeYh"  >
<path style="stroke: rgb(162,241,240); stroke-width: 0; stroke-dasharray: none; stroke-linecap: butt; stroke-dashoffset: 0; stroke-linejoin: miter; stroke-miterlimit: 4; fill: rgb(0,102,204); fill-rule: nonzero; opacity: 1;" vector-effect="non-scaling-stroke"  transform=" translate(0, 0)" d="M -160.65009 -50 L 160.65007999999997 -50 L 160.65007999999997 50 L -160.65009 50 z" stroke-linecap="round" />
</g>
<g transform="matrix(1.54 0 0 0.51 150.09 149.87)" id="WTyvSMIW86T-7du6sGpQM"  >
<path style="stroke: rgb(162,241,240); stroke-width: 0; stroke-dasharray: none; stroke-linecap: butt; stroke-dashoffset: 0; stroke-linejoin: miter; stroke-miterlimit: 4; fill: rgb(255,204,0); fill-rule: nonzero; opacity: 1;" vector-effect="non-scaling-stroke"  transform=" translate(0, 0)" d="M -97.15158 -97.15158 L 97.15156999999999 -97.15158 L 97.15156999999999 97.15156999999999 L -97.15158 97.15156999999999 z" stroke-linecap="round" />
</g>
<g transform="matrix(1 0 0 1 150 50)" style="" id="z39Wm_tOm04C136H6jRft"  >
		<text xml:space="preserve" font-family="Open Sans" font-size="22" font-style="normal" font-weight="700" letter-spacing="0.044" line-height="1" style="stroke: none; stroke-width: 1; stroke-dasharray: none; stroke-linecap: butt; stroke-dashoffset: 0; stroke-linejoin: miter; stroke-miterlimit: 4; fill: rgb(86,0,0); fill-rule: nonzero; opacity: 1; white-space: pre;" ><tspan x="-127.3" y="6.86" >S</tspan><tspan x="-115.13" y="6.86" >t</tspan><tspan x="-105.54" y="6.86" >o</tspan><tspan x="-91.88" y="6.86" >p</tspan><tspan x="-77.91" y="6.86" style="white-space: pre; "> </tspan><tspan x="-72.15" y="6.86" >R</tspan><tspan x="-57.58" y="6.86" >u</tspan><tspan x="-43.08" y="6.86" >s</tspan><tspan x="-32.1" y="6.86" >s</tspan><tspan x="-21.12" y="6.86" >i</tspan><tspan x="-14.36" y="6.86" >a</tspan><tspan x="-1.03" y="6.86" >n</tspan><tspan x="13.47" y="6.86" style="white-space: pre; "> </tspan><tspan x="19.23" y="6.86" >a</tspan><tspan x="32.56" y="6.86" >g</tspan><tspan x="45.03" y="6.86" >g</tspan><tspan x="57.51" y="6.86" >r</tspan><tspan x="67.54" y="6.86" >e</tspan><tspan x="80.58" y="6.86" >s</tspan><tspan x="91.56" y="6.86" >i</tspan><tspan x="98.32" y="6.86" >o</tspan><tspan x="111.99" y="6.86" >n</tspan></text>
</g>
<g transform="matrix(1 0 0 1 150 149.87)" style="" id="Oqr9jrLp4ConOSdTJpT34"  >
		<text xml:space="preserve" font-family="Open Sans" font-size="28" font-style="normal" font-weight="700" letter-spacing="0.056" line-height="1" style="stroke: rgb(255,255,255); stroke-width: 0; stroke-dasharray: none; stroke-linecap: butt; stroke-dashoffset: 0; stroke-linejoin: miter; stroke-miterlimit: 4; fill: rgb(255,255,255); fill-rule: nonzero; opacity: 1; white-space: pre;" ><tspan x="-126.88" y="9" >H</tspan><tspan x="-105.4" y="9" >e</tspan><tspan x="-88.8" y="9" >l</tspan><tspan x="-80.2" y="9" >p</tspan><tspan x="-62.43" y="9" style="white-space: pre; "> </tspan><tspan x="-55.1" y="9" >U</tspan><tspan x="-33.88" y="9" >k</tspan><tspan x="-16.46" y="9" >r</tspan><tspan x="-3.69" y="9" >a</tspan><tspan x="13.28" y="9" >i</tspan><tspan x="21.88" y="9" >n</tspan><tspan x="40.34" y="9" >e</tspan><tspan x="56.94" y="9" style="white-space: pre; "> </tspan><tspan x="64.27" y="9" >n</tspan><tspan x="82.73" y="9" >o</tspan><tspan x="100.12" y="9" >w</tspan></text>
</g>
</svg>